<svg width="128" height="128" viewBox="0 0 128 128" fill="none" xmlns="http://www.w3.org/2000/svg">
<path d="M38.4662 53.6875L19.3125 64L38.4662 74.3125M38.4662 53.6875L64 67.4375L89.5337 53.6875M38.4662 53.6875L19.3125 43.375L64 19.3125L108.688 43.375L89.5337 53.6875M38.4662 74.3125L19.3125 84.625L64 108.688L108.688 84.625L89.5337 74.3125M38.4662 74.3125L64 88.0625L89.5337 74.3125M89.5337 53.6875L108.688 64L89.5337 74.3125" stroke="#F472B6" stroke-width="6.875" stroke-linecap="round" stroke-linejoin="round"/>
<path d="M38.4662 53.6875L19.3125 64L38.4662 74.3125L64 88.0625L89.5337 74.3125L108.688 64L89.5337 53.6875M38.4662 53.6875L64 67.4375L89.5337 53.6875M38.4662 53.6875L19.3125 43.375L64 19.3125L108.688 43.375L89.5337 53.6875" stroke="#EC4899" stroke-width="6.875" stroke-linecap="round" stroke-linejoin="round"/>
<path d="M38.4662 53.6875L64 67.4375L89.5337 53.6875L108.688 43.375L64 19.3125L19.3125 43.375L38.4662 53.6875Z" stroke="#DB2777" stroke-width="6.875" stroke-linecap="round" stroke-linejoin="round"/>
</svg>
